<?xml version="1.0" encoding="UTF-8" standalone="no"?>
<svg
   xmlns:dc="http://purl.org/dc/elements/1.1/"
   xmlns:cc="http://creativecommons.org/ns#"
   xmlns:rdf="http://www.w3.org/1999/02/22-rdf-syntax-ns#"
   xmlns:svg="http://www.w3.org/2000/svg"
   xmlns="http://www.w3.org/2000/svg"
   xmlns:sodipodi="http://sodipodi.sourceforge.net/DTD/sodipodi-0.dtd"
   xmlns:inkscape="http://www.inkscape.org/namespaces/inkscape"
   preserveAspectRatio="xMidYMid"
   width="42.498894"
   height="32.433487"
   viewBox="0 0 42.498894 32.433487"
   id="svg2"
   version="1.1"
   inkscape:version="0.91 r13725"
   sodipodi:docname="RFramework.svg">
  <metadata
     id="metadata22">
    <rdf:RDF>
      <cc:Work
         rdf:about="">
        <dc:format>image/svg+xml</dc:format>
        <dc:type
           rdf:resource="http://purl.org/dc/dcmitype/StillImage" />
        <dc:title></dc:title>
      </cc:Work>
    </rdf:RDF>
  </metadata>
  <sodipodi:namedview
     pagecolor="#162235"
     bordercolor="#666666"
     borderopacity="1"
     objecttolerance="10"
     gridtolerance="10"
     guidetolerance="10"
     inkscape:pageopacity="0"
     inkscape:pageshadow="2"
     inkscape:window-width="1366"
     inkscape:window-height="705"
     id="namedview20"
     showgrid="false"
     inkscape:zoom="0.39779005"
     inkscape:cx="34.843044"
     inkscape:cy="10.11239"
     inkscape:window-x="-8"
     inkscape:window-y="-8"
     inkscape:window-maximized="1"
     inkscape:current-layer="svg2"
     fit-margin-top="0"
     fit-margin-left="0"
     fit-margin-right="0"
     fit-margin-bottom="0" />
  <defs
     id="defs4">
    <linearGradient
       id="gradientFill-1"
       x1="0"
       x2="1"
       y1="0"
       y2="1"
       gradientUnits="objectBoundingBox"
       spreadMethod="pad">
      <stop
         offset="0"
         stop-color="rgb(203,206,208)"
         stop-opacity="1"
         id="stop7" />
      <stop
         offset="1"
         stop-color="rgb(132,131,139)"
         stop-opacity="1"
         id="stop9" />
    </linearGradient>
    <linearGradient
       id="gradientFill-2"
       x1="0"
       x2="1"
       y1="0"
       y2="1"
       gradientUnits="objectBoundingBox"
       spreadMethod="pad">
      <stop
         offset="0"
         stop-color="rgb(39,109,195)"
         stop-opacity="1"
         id="stop12" />
      <stop
         offset="1"
         stop-color="rgb(22,92,170)"
         stop-opacity="1"
         id="stop14" />
    </linearGradient>
  </defs>
  <path
     style="fill:#ffffff;fill-opacity:1;fill-rule:evenodd;stroke:none;stroke-width:1.25;stroke-miterlimit:4;stroke-dasharray:none;stroke-opacity:1"
     d="m 21.25,0.625 c -11.390532,0 -20.625,6.1838799 -20.625,13.8125 0,6.56051 6.8370072,12.041858 15.994141,13.451172 l 0,-4.232422 c -4.70993,-1.628933 -7.8886722,-4.681334 -7.8886722,-8.1875 0,-5.215218 7.0179612,-9.4433594 15.6757812,-9.4433594 8.657764,0 15.046875,2.8928474 15.046875,9.4433594 0,3.278943 -1.607884,5.634067 -4.29172,7.175362 0.334603,-0.1396 0.893621,0.847955 1.139381,1.21722 3.447584,-2.468877 5.572266,-5.776816 5.572266,-9.423828 C 41.873047,6.8088799 32.64059,0.625 21.25,0.625 Z m 6.052734,24.164062 c -0.537347,0.04505 -1.088027,0.07679 -1.648437,0.0957 l 0.002,3.042968 c 1.050105,-0.153217 2.065177,-0.365219 3.048828,-0.621093 -0.424571,-0.845608 -0.954664,-1.801733 -1.402344,-2.517579 z"
     id="path16"
     inkscape:connector-curvature="0"
     sodipodi:nodetypes="ssccsssccsscccccc" />
  <path
     d="m 32.03494,22.019001 c 0,0 1.248289,0.376684 1.973511,0.743642 0.251637,0.127334 0.687011,0.381431 1.001057,0.71504 0.307638,0.326745 0.457625,0.657837 0.457625,0.657837 l 4.919477,8.294466 -7.951247,0.0035 -3.718209,-6.982338 c 0,0 -0.761375,-1.30818 -1.229869,-1.687495 -0.390812,-0.316391 -0.557445,-0.429024 -0.943853,-0.429024 -0.26897,0 -1.889193,0 -1.889193,0 l 0.0015,9.093824 -7.035995,0.003 0,-23.229538 14.129193,0 c 0,0 6.435361,0.116065 6.435361,6.238696 0,6.122632 -6.149345,6.57837 -6.149345,6.57837 z m -3.060371,-7.778264 -4.259523,-0.0027 -0.0021,3.949881 4.261639,-0.0014 c 0,0 1.973511,-0.0061 1.973511,-2.009262 0,-2.043414 -1.973511,-1.936501 -1.973511,-1.936501 z"
     id="path18"
     style="fill:#ffffff;fill-rule:evenodd"
     inkscape:connector-curvature="0" />
</svg>
